<?xml version="1.0" standalone="no"?>
<!DOCTYPE svg PUBLIC "-//W3C//DTD SVG 1.1//EN" "http://www.w3.org/Graphics/SVG/1.1/DTD/svg11.dtd">
<svg xmlns="http://www.w3.org/2000/svg" id="Layer_1" data-name="Layer 1" viewBox="0 0 142.73 243.97" width="142.72999572753906" height="243.97000122070312">
  <defs>
    <style>
      .cls-1 {
        fill: #535c7c;
      }

      .cls-1, .cls-2 {
        font-family: PerpetuaTitlingMT-Light, 'Perpetua Titling MT';
        font-size: 108.66px;
        font-weight: 300;
      }

      .cls-2 {
        fill: #bee6f4;
      }

      .cls-3 {
        fill: #fad79b;
      }
    </style>
  </defs>
  <text class="cls-2" transform="translate(0 154.44) scale(.88 1)"><tspan x="0" y="0">C</tspan></text>
  <g>
    <path class="cls-3" d="M128.14.14c-.95,5.11.17,10.13.62,15.29-1.41-.76-3.78-5.16-4.33-2.01-3.73,8.32-7.52,16.61-11.16,24.98-4.39,11.67-11.28,19,8.86,17.9,13.64-2.78-1.55-27.48,19.6-35.9-1.61,4.62-2.97,8.52-4.37,12.54-.57-.55-1.43-1.37-2.51-2.41-5.16,7.91.19,17.49-2.49,25.89-2.29,11.13-15.1,9.54-24.71,7.61-8.75-.57-9.82,14.5-13.78,19.82-.71,1.61-1.52,1.76-3.03,1.06-5.74-2.66-5.74-2.62-3.06-8.37,2.05-4.39,4.05-8.82,6.09-13.21,2.56-11.01-22.53-17.5-11.38-31.55,4.68-7.03,14.85-9.58,17.26-17.81-1.42-.26-2.71-.49-4.56-.83,4.42-2.61,5.7-6.84,8.09-10.82,4.17,11.53-3.99,20.77-12.81,27.97-6.65,6.15.15,13.18,5.68,17.86,2.16,1.94,4.46,1.51,5.79-1.03,6.31-12.42,13.24-24.64,18.24-37.54-1.62-.19-3.05-.36-4.31-.51,3.67-2.97,7.38-5.97,11.43-9.07.52-.03.68.05.84.13Z"/>
    <path class="cls-3" d="M18.5,243.58c-1.51-.73-2.53-2.27-2.13-3.97,10.62-21.3,60.12-147.74,74.46-166.66,1.18-1.92,4.51-2.18,6.16.26.71.97.71,2.39.18,3.42-1.19,2.38-3.08,6.41-5.46,11.89-3.23,7.39-7.39,17.27-12.09,28.48-12.33,29.44-29.12,70.09-42.01,97.86-6.44,13.83-11.75,24.22-15,28.03-.73.96-2.61,1.48-4.05.71l-.06-.03Z"/>
  </g>
  <text class="cls-1" transform="translate(73.94 156.5) scale(.88 1)"><tspan x="0" y="0">C</tspan></text>
</svg>