<svg xmlns="http://www.w3.org/2000/svg" width="119" height="83" viewBox="0 0 119 83" fill="none"><g clip-path="url(#clip0_580_263)"><path d="M32.4761 52.1593C26.8071 48.4414 20.5761 40.6793 8.67609 41.9054C8.47332 41.928 8.26813 41.9001 8.07865 41.8243C7.88918 41.7484 7.72124 41.6269 7.58968 41.4706C7.45812 41.3142 7.36699 41.1277 7.32434 40.9276C7.28168 40.7275 7.2888 40.52 7.3451 40.3233C7.9958 38.0886 11.5352 33.6489 22.0648 36.4176C41.7831 41.5791 29.055 13.9619 12.0085 2.90708C10.5888 1.9875 10.1057 0.514186 11.7423 0.0988895C15.0451 -0.75148 29.7747 3.54981 46.2986 33.7775C53.6141 47.1559 66.155 49.4203 74.4662 46.2067C74.4662 46.2067 56.4141 67.8219 32.4761 52.1593Z" fill="#417393"></path><path d="M1.24225 9.56172C19.9746 11.0944 27.4676 25.3825 28.7591 27.5183C28.8183 23.0193 18.0817 6.12069 6.42816 5.93282C4.55806 5.86649 2.6913 6.13777 0.916892 6.73375C0.615946 6.85291 0.362641 7.06837 0.196305 7.3467C0.0299689 7.62503 -0.0400977 7.95065 -0.00301121 8.273C0.0340753 8.59536 0.176232 8.89643 0.401398 9.12945C0.626565 9.36248 0.922151 9.51443 1.24225 9.56172Z" fill="#417393"></path><path d="M2.22836 18.4411C6.65438 17.6322 11.2117 17.9447 15.4868 19.3503C19.7618 20.7559 23.6192 23.2101 26.7086 26.49C25.841 23.0687 14.3157 12.4292 5.43259 14.6244C4.00401 14.9601 2.64565 15.5459 1.4199 16.3548C1.2133 16.5048 1.0621 16.7193 0.989965 16.9647C0.917825 17.21 0.928815 17.4725 1.02121 17.7109C1.11361 17.9494 1.2822 18.1504 1.50061 18.2825C1.71903 18.4146 1.97496 18.4704 2.22836 18.4411Z" fill="#417393"></path><path d="M6.71418 25.1155C9.74576 23.7747 13.0632 23.2144 16.3655 23.4855C19.6678 23.7566 22.8502 24.8505 25.624 26.668C24.4212 24.374 14.3353 18.7576 8.36066 21.8426C7.39185 22.3257 6.51704 22.9787 5.77756 23.7708C5.65871 23.9141 5.5901 24.0926 5.58229 24.2788C5.57448 24.4651 5.62789 24.6487 5.73433 24.8015C5.84076 24.9543 5.99431 25.0678 6.17135 25.1246C6.34839 25.1813 6.53911 25.1781 6.71418 25.1155Z" fill="#417393"></path><path d="M75.3635 33.1545C75.3635 33.1545 75.1466 31.6417 74.2593 31.6417C70.3157 31.6417 67.1213 33.8467 67.1213 36.5857C67.1213 38.6325 69.0044 40.5409 71.8143 41.1935C71.8785 41.2097 71.9348 41.2487 71.9728 41.3031C72.0108 41.3576 72.028 41.424 72.0213 41.4901C71.9218 42.094 71.5888 42.6341 71.0945 42.9931C70.365 43.5963 66.7565 46.2364 65.9678 46.2858C68.8253 46.4823 71.6919 46.0678 74.3776 45.0696C74.2751 44.1347 74.3487 43.1888 74.5945 42.2812C74.9884 42.013 75.4603 41.8842 75.9354 41.9153C77.2318 42.0175 78.514 42.2561 79.7607 42.6272C82.5863 43.4317 85.5007 43.8801 88.4368 43.9621C103.847 43.9621 115.796 35.5969 118.409 32.5514C118.645 32.2902 118.844 31.9973 119 31.6812H76.9903L75.3635 33.1545ZM73.372 35.8342C73.1515 35.8316 72.9408 35.7419 72.7858 35.5845C72.6308 35.4272 72.5438 35.2149 72.5438 34.9937C72.5464 34.7742 72.6345 34.5644 72.7892 34.4092C72.944 34.254 73.1532 34.1657 73.372 34.1631C73.5926 34.1631 73.8042 34.2503 73.9611 34.4058C74.118 34.5613 74.2074 34.7725 74.21 34.9937C74.1999 35.2097 74.1071 35.4134 73.9511 35.5626C73.795 35.7118 73.5876 35.7949 73.372 35.7946V35.8342Z" fill="#417393"></path><path d="M37.9575 78.5899C37.96 78.5576 37.9746 78.5274 37.9984 78.5054C38.0222 78.4834 38.0533 78.4712 38.0857 78.4713H39.6139C39.9887 78.4686 40.3494 78.6148 40.6172 78.8778C40.885 79.1409 41.0382 79.4995 41.0434 79.8754C41.0435 80.2549 40.8945 80.6191 40.6288 80.8893C40.3631 81.1595 40.0021 81.3138 39.6237 81.319H38.9533V82.8121C38.9534 82.8446 38.9412 82.8759 38.9193 82.8997C38.8974 82.9236 38.8672 82.9382 38.835 82.9407H38.0857C38.0517 82.9407 38.0191 82.9271 37.9951 82.903C37.971 82.8789 37.9575 82.8462 37.9575 82.8121V78.5899ZM39.5547 80.3797C39.6881 80.3797 39.816 80.3266 39.9103 80.232C40.0045 80.1374 40.0575 80.0091 40.0575 79.8754C40.055 79.8118 40.04 79.7492 40.0133 79.6914C39.9867 79.6336 39.9489 79.5816 39.9022 79.5385C39.8555 79.4953 39.8008 79.4618 39.7411 79.4399C39.6815 79.4179 39.6182 79.408 39.5547 79.4107H38.9533V80.3995L39.5547 80.3797Z" fill="#8DB258"></path><path d="M44.5535 78.5899C44.5535 78.5585 44.566 78.5283 44.5882 78.5061C44.6104 78.4838 44.6405 78.4713 44.6718 78.4713H46.5747C46.7559 78.47 46.9357 78.5045 47.1036 78.5729C47.2716 78.6413 47.4245 78.7421 47.5536 78.8698C47.6826 78.9974 47.7854 79.1493 47.856 79.3167C47.9265 79.4842 47.9635 79.6639 47.9648 79.8457C47.9546 80.1364 47.8541 80.4165 47.6774 80.647C47.5006 80.8775 47.2563 81.0468 46.9789 81.1312L47.8563 82.7528C47.8663 82.772 47.8713 82.7934 47.8708 82.8151C47.8704 82.8367 47.8644 82.8579 47.8536 82.8767C47.8428 82.8954 47.8274 82.9111 47.809 82.9223C47.7905 82.9335 47.7695 82.9398 47.7479 82.9407H46.9C46.8799 82.94 46.8603 82.9342 46.843 82.9238C46.8258 82.9134 46.8115 82.8988 46.8014 82.8814L45.9535 81.1905H45.5099V82.8121C45.5112 82.8285 45.5092 82.845 45.5039 82.8606C45.4985 82.8761 45.49 82.8904 45.4789 82.9025C45.4678 82.9146 45.4543 82.9242 45.4392 82.9308C45.4242 82.9374 45.408 82.9407 45.3915 82.9407H44.6324C44.616 82.9407 44.5998 82.9374 44.5847 82.9308C44.5697 82.9242 44.5562 82.9146 44.5451 82.9025C44.5339 82.8904 44.5254 82.8761 44.5201 82.8606C44.5148 82.845 44.5127 82.8285 44.5141 82.8121L44.5535 78.5899ZM46.5254 80.3797C46.6561 80.3721 46.7791 80.3146 46.8689 80.219C46.9587 80.1234 47.0087 79.9969 47.0085 79.8655C47.0059 79.7378 46.9542 79.616 46.8642 79.5257C46.7741 79.4354 46.6527 79.3835 46.5254 79.381H45.5394V80.3698L46.5254 80.3797Z" fill="#8DB258"></path><path d="M53.6438 78.4021C53.945 78.4021 54.2432 78.4618 54.5214 78.5777C54.7995 78.6936 55.0521 78.8634 55.2647 79.0775C55.4772 79.2916 55.6455 79.5456 55.7598 79.8251C55.8742 80.1045 55.9324 80.4039 55.9311 80.706C55.9324 81.0076 55.8741 81.3065 55.7597 81.5854C55.6452 81.8643 55.4767 82.1177 55.2641 82.331C55.0514 82.5443 54.7988 82.7132 54.5207 82.828C54.2426 82.9429 53.9445 83.0013 53.6438 83C53.3431 83.0013 53.045 82.9429 52.7669 82.828C52.4888 82.7132 52.2362 82.5443 52.0235 82.331C51.8108 82.1177 51.6424 81.8643 51.5279 81.5854C51.4134 81.3065 51.3552 81.0076 51.3565 80.706C51.3552 80.4039 51.4134 80.1045 51.5277 79.8251C51.6421 79.5456 51.8104 79.2916 52.0229 79.0775C52.2354 78.8634 52.488 78.6936 52.7662 78.5777C53.0443 78.4618 53.3426 78.4021 53.6438 78.4021ZM53.6438 81.9816C53.8108 81.9816 53.9762 81.9485 54.1305 81.8844C54.2848 81.8203 54.425 81.7264 54.5431 81.6079C54.6612 81.4895 54.7549 81.3489 54.8188 81.1941C54.8827 81.0394 54.9156 80.8735 54.9156 80.706C54.9156 80.3677 54.7816 80.0432 54.5431 79.804C54.3046 79.5648 53.9811 79.4304 53.6438 79.4304C53.3065 79.4304 52.983 79.5648 52.7445 79.804C52.506 80.0432 52.372 80.3677 52.372 80.706C52.372 80.8735 52.4049 81.0394 52.4688 81.1941C52.5327 81.3489 52.6264 81.4895 52.7445 81.6079C52.8626 81.7264 53.0028 81.8203 53.1571 81.8844C53.3114 81.9485 53.4768 81.9816 53.6438 81.9816Z" fill="#8DB258"></path><path d="M58.8692 82.3771L59.303 81.9519C59.3132 81.9395 59.326 81.9294 59.3405 81.9226C59.355 81.9157 59.3708 81.9121 59.3868 81.9121C59.4028 81.9121 59.4187 81.9157 59.4332 81.9226C59.4477 81.9294 59.4604 81.9395 59.4706 81.9519C59.5122 81.9958 59.5629 82.0301 59.6191 82.0523C59.6753 82.0745 59.7357 82.0841 59.796 82.0804C59.9734 82.0804 60.1706 81.9123 60.1706 81.5959V78.6295C60.1706 78.598 60.1831 78.5678 60.2053 78.5456C60.2275 78.5233 60.2576 78.5108 60.2889 78.5108H61.0678C61.0992 78.5108 61.1293 78.5233 61.1515 78.5456C61.1737 78.5678 61.1861 78.598 61.1861 78.6295V81.6453C61.1959 81.8293 61.1672 82.0133 61.1021 82.1856C61.0369 82.3578 60.9366 82.5145 60.8077 82.6457C60.6787 82.7769 60.5239 82.8797 60.3531 82.9475C60.1823 83.0153 59.9993 83.0467 59.8157 83.0395C59.6265 83.0453 59.4386 83.0063 59.2673 82.9255C59.096 82.8448 58.9461 82.7246 58.8298 82.5748C58.8189 82.5594 58.8112 82.5419 58.8072 82.5235C58.8033 82.505 58.8032 82.4859 58.8069 82.4674C58.8106 82.4488 58.818 82.4313 58.8287 82.4157C58.8395 82.4002 58.8532 82.387 58.8692 82.3771Z" fill="#8DB258"></path><path d="M65.0112 78.5899C65.0112 78.5744 65.0142 78.5589 65.0202 78.5445C65.0261 78.5302 65.0348 78.5171 65.0458 78.506C65.0568 78.495 65.0698 78.4863 65.0842 78.4803C65.0985 78.4744 65.1139 78.4713 65.1295 78.4713H67.7717C67.8031 78.4713 67.8332 78.4838 67.8554 78.506C67.8776 78.5283 67.89 78.5585 67.89 78.5899V79.2821C67.8914 79.2985 67.8893 79.315 67.884 79.3306C67.8787 79.3461 67.8702 79.3604 67.8591 79.3725C67.8479 79.3846 67.8344 79.3942 67.8194 79.4008C67.8044 79.4074 67.7881 79.4107 67.7717 79.4107H66.0069V80.2017H67.4562C67.4868 80.204 67.5156 80.2172 67.5373 80.239C67.5591 80.2608 67.5723 80.2896 67.5745 80.3203V81.0125C67.5746 81.045 67.5625 81.0762 67.5405 81.1001C67.5186 81.1239 67.4885 81.1386 67.4562 81.1411H66.0069V82.0013H67.7717C67.8031 82.0013 67.8332 82.0138 67.8554 82.0361C67.8776 82.0583 67.89 82.0885 67.89 82.12V82.8121C67.8914 82.8285 67.8893 82.845 67.884 82.8606C67.8787 82.8761 67.8702 82.8904 67.8591 82.9025C67.8479 82.9146 67.8344 82.9242 67.8194 82.9308C67.8044 82.9374 67.7881 82.9407 67.7717 82.9407H65.1295C65.1131 82.9407 65.0968 82.9374 65.0818 82.9308C65.0668 82.9242 65.0532 82.9146 65.0421 82.9025C65.031 82.8904 65.0225 82.8761 65.0172 82.8606C65.0118 82.845 65.0098 82.8285 65.0112 82.8121V78.5899Z" fill="#8DB258"></path><path d="M73.6181 78.4021C73.9008 78.3941 74.1823 78.4424 74.4463 78.5443C74.7103 78.6461 74.9516 78.7994 75.1561 78.9954C75.1687 79.0065 75.1788 79.0202 75.1857 79.0355C75.1926 79.0509 75.1962 79.0675 75.1962 79.0843C75.1962 79.1012 75.1926 79.1178 75.1857 79.1332C75.1788 79.1485 75.1687 79.1622 75.1561 79.1734L74.6533 79.6974C74.6316 79.7169 74.6035 79.7276 74.5744 79.7276C74.5453 79.7276 74.5172 79.7169 74.4955 79.6974C74.2606 79.4846 73.9544 79.3681 73.6378 79.3711C73.4695 79.3736 73.3034 79.4099 73.1493 79.4777C72.9952 79.5456 72.8562 79.6436 72.7404 79.7662C72.6247 79.8887 72.5345 80.0332 72.4753 80.1913C72.4161 80.3493 72.3889 80.5176 72.3955 80.6862C72.3916 80.8541 72.421 81.021 72.4821 81.1774C72.5431 81.3337 72.6346 81.4763 72.7511 81.5969C72.8676 81.7175 73.0069 81.8135 73.1608 81.8796C73.3148 81.9456 73.4802 81.9803 73.6477 81.9816C73.9572 81.9814 74.2571 81.873 74.4955 81.675C74.5065 81.664 74.5196 81.6552 74.534 81.6492C74.5484 81.6432 74.5638 81.6401 74.5793 81.6401C74.5949 81.6401 74.6103 81.6432 74.6247 81.6492C74.6391 81.6552 74.6522 81.664 74.6631 81.675L75.1561 82.1991C75.177 82.224 75.1884 82.2555 75.1884 82.2881C75.1884 82.3206 75.177 82.3521 75.1561 82.3771C74.739 82.7751 74.184 82.995 73.6082 82.9901C73.307 82.9914 73.0085 82.9331 72.7299 82.8184C72.4512 82.7037 72.1979 82.5349 71.9845 82.3217C71.771 82.1086 71.6017 81.8552 71.4861 81.5763C71.3705 81.2973 71.311 80.9982 71.311 80.6961C71.3123 80.3935 71.373 80.0942 71.4897 79.8152C71.6063 79.5361 71.7766 79.2829 71.9908 79.0699C72.2051 78.8569 72.459 78.6883 72.7382 78.5737C73.0174 78.4591 73.3164 78.4008 73.6181 78.4021Z" fill="#8DB258"></path><path d="M79.3662 79.4107H78.4493C78.4329 79.4107 78.4166 79.4074 78.4016 79.4008C78.3866 79.3942 78.3731 79.3846 78.3619 79.3725C78.3508 79.3604 78.3423 79.3461 78.337 79.3306C78.3317 79.315 78.3296 79.2985 78.331 79.2821V78.5899C78.331 78.5744 78.334 78.5589 78.34 78.5445C78.3459 78.5302 78.3546 78.5171 78.3656 78.506C78.3766 78.495 78.3897 78.4863 78.404 78.4803C78.4184 78.4744 78.4337 78.4713 78.4493 78.4713H81.2789C81.3102 78.4713 81.3403 78.4838 81.3625 78.506C81.3847 78.5283 81.3972 78.5585 81.3972 78.5899V79.2821C81.3985 79.2985 81.3965 79.315 81.3912 79.3306C81.3858 79.3461 81.3773 79.3604 81.3662 79.3725C81.3551 79.3846 81.3416 79.3942 81.3265 79.4008C81.3115 79.4074 81.2953 79.4107 81.2789 79.4107H80.3718V82.8121C80.3718 82.8462 80.3583 82.8789 80.3343 82.903C80.3102 82.9271 80.2776 82.9407 80.2437 82.9407H79.4845C79.4681 82.9407 79.4519 82.9374 79.4368 82.9308C79.4218 82.9242 79.4083 82.9146 79.3972 82.9025C79.386 82.8904 79.3775 82.8761 79.3722 82.8606C79.3669 82.845 79.3648 82.8285 79.3662 82.8121V79.4107Z" fill="#8DB258"></path><path d="M7.54222 66.398C7.54222 66.3403 7.56505 66.285 7.60573 66.2442C7.64641 66.2034 7.70158 66.1805 7.7591 66.1805H12.5901C12.6194 66.1792 12.6487 66.1838 12.6761 66.1941C12.7036 66.2045 12.7287 66.2203 12.7499 66.2406C12.7711 66.2609 12.7879 66.2854 12.7994 66.3124C12.811 66.3395 12.8169 66.3686 12.8169 66.398V67.6736C12.8169 67.7339 12.793 67.7917 12.7504 67.8344C12.7079 67.877 12.6502 67.901 12.5901 67.901H9.36615V69.3644H12.0183C12.0767 69.3644 12.133 69.387 12.1752 69.4275C12.2175 69.468 12.2425 69.5234 12.245 69.582V70.8575C12.245 70.9178 12.2211 70.9757 12.1786 71.0183C12.1361 71.061 12.0784 71.0849 12.0183 71.0849H9.36615V72.667H12.5901C12.6194 72.6657 12.6487 72.6703 12.6761 72.6807C12.7036 72.691 12.7287 72.7068 12.7499 72.7271C12.7711 72.7475 12.7879 72.7719 12.7994 72.799C12.811 72.826 12.8169 72.8551 12.8169 72.8846V74.1601C12.8169 74.2204 12.793 74.2783 12.7504 74.3209C12.7079 74.3636 12.6502 74.3875 12.5901 74.3875H7.7591C7.72977 74.3876 7.70074 74.3816 7.67376 74.3701C7.64678 74.3585 7.62243 74.3416 7.60215 74.3204C7.58188 74.2991 7.5661 74.2739 7.5558 74.2464C7.5455 74.2189 7.54088 74.1895 7.54222 74.1601V66.398Z" fill="#8DB258"></path><path d="M14.7295 66.398C14.732 66.3394 14.757 66.2841 14.7993 66.2436C14.8415 66.203 14.8978 66.1804 14.9562 66.1805H16.3464C16.4031 66.1829 16.4569 66.2066 16.4971 66.2469C16.5373 66.2872 16.5609 66.3411 16.5633 66.398V72.6571H19.3436C19.3729 72.6558 19.4021 72.6604 19.4296 72.6708C19.4571 72.6811 19.4822 72.6969 19.5034 72.7172C19.5246 72.7376 19.5414 72.762 19.5529 72.7891C19.5644 72.8161 19.5704 72.8452 19.5703 72.8747V74.1502C19.5703 74.2105 19.5464 74.2684 19.5039 74.311C19.4614 74.3537 19.4037 74.3777 19.3436 74.3777H14.9562C14.8961 74.3777 14.8384 74.3537 14.7959 74.311C14.7534 74.2684 14.7295 74.2105 14.7295 74.1502V66.398Z" fill="#8DB258"></path><path d="M21.4339 66.398C21.4386 66.3402 21.4644 66.2862 21.5061 66.2461C21.5479 66.2061 21.6029 66.1827 21.6606 66.1805H23.0606C23.1174 66.1829 23.1712 66.2066 23.2113 66.2469C23.2515 66.2872 23.2751 66.3411 23.2775 66.398V74.1502C23.2776 74.2089 23.255 74.2653 23.2146 74.3076C23.1742 74.35 23.119 74.3751 23.0606 74.3777H21.6311C21.5717 74.3752 21.5154 74.3505 21.4734 74.3083C21.4314 74.2662 21.4067 74.2098 21.4043 74.1502L21.4339 66.398Z" fill="#8DB258"></path><path d="M25.0127 73.9722L28.1183 67.9504H25.5747C25.5163 67.9479 25.4611 67.9228 25.4207 67.8804C25.3803 67.838 25.3577 67.7816 25.3578 67.723V66.398C25.3602 66.3411 25.3838 66.2872 25.424 66.2469C25.4641 66.2066 25.5179 66.1829 25.5747 66.1805H30.5043C30.562 66.1827 30.617 66.2061 30.6588 66.2461C30.7005 66.2862 30.7262 66.3402 30.731 66.398V66.5562L27.7733 72.6275H30.3169C30.3745 72.6275 30.4296 72.6504 30.4703 72.6912C30.511 72.732 30.5338 72.7873 30.5338 72.845V74.1205C30.5352 74.1499 30.5305 74.1793 30.5202 74.2069C30.5099 74.2344 30.4942 74.2596 30.4739 74.2808C30.4536 74.3021 30.4293 74.319 30.4023 74.3305C30.3753 74.3421 30.3463 74.348 30.3169 74.348H25.2493C25.19 74.3456 25.1337 74.3208 25.0917 74.2787C25.0497 74.2365 25.025 74.1801 25.0226 74.1205L25.0127 73.9722Z" fill="#8DB258"></path><path d="M31.9042 74.1008L35.5521 66.1904C35.5717 66.1542 35.6 66.1234 35.6344 66.101C35.6688 66.0785 35.7083 66.0651 35.7493 66.0618H35.8676C35.9088 66.0642 35.9486 66.0772 35.9832 66.0998C36.0178 66.1223 36.0459 66.1536 36.0648 66.1904L39.7225 74.1008C39.7403 74.1336 39.749 74.1705 39.7477 74.2079C39.7463 74.2452 39.7349 74.2814 39.7147 74.3128C39.6946 74.3442 39.6663 74.3695 39.633 74.3862C39.5996 74.4028 39.5625 74.4101 39.5253 74.4073H38.2239C38.0169 74.4073 37.9183 74.3381 37.8197 74.1107L37.3957 73.1911H34.2211L33.7972 74.1206C33.7691 74.2073 33.7134 74.2824 33.6385 74.3343C33.5637 74.3861 33.4739 74.4118 33.3831 74.4073H32.1014C32.0643 74.4101 32.0271 74.4028 31.9937 74.3862C31.9604 74.3695 31.9322 74.3442 31.912 74.3128C31.8918 74.2814 31.8804 74.2452 31.879 74.2079C31.8777 74.1705 31.8864 74.1336 31.9042 74.1008ZM36.6957 71.5991L35.8084 69.6215L34.931 71.5991H36.6957Z" fill="#8DB258"></path><path d="M41.0041 66.398C41.0041 66.3403 41.027 66.285 41.0677 66.2442C41.1083 66.2034 41.1635 66.1805 41.221 66.1805H43.9422C44.2492 66.1576 44.5577 66.1958 44.8499 66.2929C45.1422 66.3899 45.4124 66.544 45.6451 66.7461C45.8778 66.9483 46.0684 67.1945 46.2059 67.4708C46.3434 67.747 46.4251 68.0478 46.4464 68.3558C46.4008 68.7552 46.2522 69.1357 46.0154 69.4599C45.7785 69.7841 45.4616 70.0409 45.0957 70.2049C45.5165 70.3307 45.8905 70.5794 46.1697 70.9193C46.4489 71.2592 46.6208 71.6749 46.6633 72.1133C46.6483 72.4308 46.5702 72.7421 46.4334 73.0288C46.2967 73.3156 46.1042 73.572 45.8672 73.783C45.6301 73.994 45.3534 74.1553 45.0533 74.2574C44.7532 74.3596 44.4357 74.4004 44.1196 74.3777H41.221C41.1917 74.3777 41.1627 74.3717 41.1357 74.3602C41.1087 74.3486 41.0843 74.3318 41.0641 74.3105C41.0438 74.2892 41.028 74.2641 41.0177 74.2365C41.0074 74.209 41.0028 74.1796 41.0041 74.1502V66.398ZM43.7351 69.5029C43.9539 69.4977 44.1621 69.4069 44.315 69.2498C44.4679 69.0927 44.5535 68.8819 44.5534 68.6624C44.5535 68.5555 44.5322 68.4497 44.4908 68.3512C44.4494 68.2528 44.3889 68.1636 44.3126 68.0889C44.2363 68.0143 44.146 67.9557 44.0468 67.9167C43.9476 67.8776 43.8416 67.8588 43.7351 67.8614H42.8182V69.5029H43.7351ZM43.883 72.6967C43.9939 72.6967 44.1037 72.6746 44.206 72.6318C44.3083 72.5889 44.4011 72.5261 44.4791 72.447C44.557 72.3679 44.6186 72.2741 44.6601 72.171C44.7016 72.0679 44.7223 71.9575 44.721 71.8463C44.6811 71.6142 44.5599 71.4039 44.3791 71.2534C44.1984 71.103 43.97 71.0222 43.7351 71.0256H42.7492V72.6967H43.883Z" fill="#8DB258"></path><path d="M48.2507 66.398C48.2507 66.3403 48.2736 66.285 48.3142 66.2442C48.3549 66.2034 48.4101 66.1805 48.4676 66.1805H53.2986C53.3279 66.1792 53.3572 66.1838 53.3846 66.1941C53.4121 66.2045 53.4372 66.2203 53.4584 66.2406C53.4796 66.2609 53.4965 66.2854 53.508 66.3124C53.5195 66.3395 53.5254 66.3686 53.5254 66.398V67.6736C53.5254 67.7339 53.5015 67.7917 53.4589 67.8344C53.4164 67.877 53.3588 67.901 53.2986 67.901H50.0747V69.3644H52.7268C52.7852 69.3644 52.8415 69.387 52.8837 69.4275C52.926 69.468 52.951 69.5234 52.9535 69.582V70.8575C52.9535 70.9178 52.9296 70.9757 52.8871 71.0183C52.8446 71.061 52.7869 71.0849 52.7268 71.0849H50.0747V72.667H53.2986C53.3279 72.6657 53.3572 72.6703 53.3846 72.6807C53.4121 72.691 53.4372 72.7068 53.4584 72.7271C53.4796 72.7475 53.4965 72.7719 53.508 72.799C53.5195 72.826 53.5254 72.8551 53.5254 72.8846V74.1601C53.5254 74.2204 53.5015 74.2783 53.4589 74.3209C53.4164 74.3636 53.3588 74.3875 53.2986 74.3875H48.4676C48.4383 74.3876 48.4092 74.3816 48.3823 74.3701C48.3553 74.3585 48.3309 74.3416 48.3106 74.3204C48.2904 74.2991 48.2746 74.2739 48.2643 74.2464C48.254 74.2189 48.2494 74.1895 48.2507 74.1601V66.398Z" fill="#8DB258"></path><path d="M57.0551 67.9307H55.3889C55.3287 67.9307 55.271 67.9067 55.2285 67.8641C55.186 67.8214 55.1621 67.7636 55.1621 67.7032V66.398C55.1647 66.3394 55.1897 66.2841 55.2319 66.2436C55.2742 66.203 55.3304 66.1804 55.3889 66.1805H60.5649C60.6234 66.1804 60.6796 66.203 60.7219 66.2436C60.7641 66.2841 60.7891 66.3394 60.7917 66.398V67.6736C60.7917 67.7339 60.7678 67.7917 60.7253 67.8344C60.6827 67.877 60.6251 67.901 60.5649 67.901H58.8987V74.1502C58.8963 74.2098 58.8716 74.2662 58.8296 74.3083C58.7876 74.3505 58.7313 74.3752 58.672 74.3777H57.272C57.2144 74.3729 57.1605 74.3471 57.1205 74.3052C57.0806 74.2633 57.0573 74.2082 57.0551 74.1502V67.9307Z" fill="#8DB258"></path><path d="M62.3594 66.398C62.3639 66.3418 62.3882 66.2891 62.4279 66.2492C62.4677 66.2094 62.5203 66.185 62.5763 66.1805H63.9664C64.0249 66.1804 64.0811 66.203 64.1234 66.2436C64.1656 66.2841 64.1906 66.3394 64.1932 66.398V69.3644H67.5256V66.398C67.5281 66.3394 67.5531 66.2841 67.5954 66.2436C67.6376 66.203 67.6939 66.1804 67.7523 66.1805H69.1425C69.1992 66.1829 69.253 66.2066 69.2932 66.2469C69.3333 66.2872 69.357 66.3411 69.3594 66.398V74.1502C69.3594 74.2089 69.3369 74.2653 69.2965 74.3076C69.2561 74.35 69.2009 74.3751 69.1425 74.3777H67.7523C67.6922 74.3777 67.6345 74.3537 67.592 74.311C67.5495 74.2684 67.5256 74.2105 67.5256 74.1502V71.0751H64.1932V74.1502C64.1932 74.2105 64.1693 74.2684 64.1268 74.311C64.0842 74.3537 64.0266 74.3777 63.9664 74.3777H62.5763C62.5187 74.3729 62.4648 74.3471 62.4248 74.3052C62.3849 74.2633 62.3616 74.2082 62.3594 74.1502V66.398Z" fill="#8DB258"></path><path d="M75.107 66.398C75.1096 66.3394 75.1346 66.2841 75.1768 66.2436C75.2191 66.203 75.2753 66.1804 75.3338 66.1805H78.8141C79.4853 66.1805 80.1293 66.4465 80.6058 66.9207C81.0822 67.3948 81.3525 68.0386 81.3577 68.7118C81.3422 69.2333 81.1689 69.7378 80.8607 70.1581C80.5525 70.5784 80.1241 70.8948 79.6324 71.0652L81.2296 74.0316C81.2508 74.0663 81.2623 74.1061 81.2629 74.1468C81.2635 74.1876 81.2532 74.2277 81.233 74.2631C81.2129 74.2984 81.1836 74.3277 81.1483 74.3479C81.113 74.368 81.073 74.3783 81.0324 74.3776H79.4746C79.4368 74.3766 79.3999 74.3661 79.3672 74.3471C79.3345 74.3281 79.307 74.3012 79.2873 74.2689L77.7394 71.164H76.931V74.1304C76.931 74.1891 76.9085 74.2455 76.8681 74.2878C76.8277 74.3302 76.7725 74.3553 76.7141 74.3578H75.3239C75.2941 74.3578 75.2647 74.352 75.2372 74.3406C75.2096 74.3291 75.1846 74.3124 75.1636 74.2912C75.1425 74.2701 75.1258 74.2451 75.1144 74.2175C75.103 74.1899 75.0972 74.1603 75.0972 74.1304L75.107 66.398ZM78.6662 69.6808C78.9102 69.6562 79.1364 69.5413 79.3004 69.3585C79.4645 69.1756 79.5547 68.938 79.5535 68.692C79.5535 68.5752 79.5306 68.4594 79.486 68.3515C79.4414 68.2435 79.376 68.1454 79.2936 68.0628C79.2112 67.9801 79.1134 67.9146 79.0057 67.8699C78.8981 67.8251 78.7827 67.8021 78.6662 67.8021H76.9408V69.6314L78.6662 69.6808Z" fill="#8DB258"></path><path d="M83.2212 66.398C83.2236 66.3411 83.2472 66.2872 83.2874 66.2469C83.3276 66.2066 83.3813 66.1829 83.4381 66.1805H84.8381C84.8959 66.1827 84.9508 66.2061 84.9926 66.2461C85.0344 66.2862 85.0601 66.3402 85.0649 66.398V74.1502C85.0624 74.2098 85.0378 74.2662 84.9958 74.3083C84.9537 74.3505 84.8975 74.3752 84.8381 74.3777H83.4381C83.3797 74.3751 83.3245 74.35 83.2841 74.3076C83.2437 74.2653 83.2211 74.2089 83.2212 74.1502V66.398Z" fill="#8DB258"></path><path d="M86.5336 66.5167C86.5158 66.4839 86.5071 66.4469 86.5084 66.4096C86.5098 66.3723 86.5212 66.336 86.5414 66.3046C86.5615 66.2733 86.5898 66.2479 86.6231 66.2313C86.6565 66.2147 86.6936 66.2074 86.7308 66.2101H88.2787C88.3204 66.2103 88.3612 66.2225 88.3961 66.2453C88.4311 66.2681 88.4588 66.3005 88.4759 66.3387L90.4477 70.6103H90.5167L92.4885 66.3387C92.5074 66.3019 92.5355 66.2707 92.5701 66.2481C92.6047 66.2256 92.6445 66.2125 92.6857 66.2101H94.2435C94.2806 66.2074 94.3178 66.2147 94.3511 66.2313C94.3844 66.2479 94.4127 66.2733 94.4329 66.3046C94.4531 66.336 94.4644 66.3723 94.4658 66.4096C94.4672 66.4469 94.4585 66.4839 94.4406 66.5167L90.773 74.4271C90.7571 74.466 90.7296 74.4992 90.6944 74.5222C90.6592 74.5451 90.6178 74.5568 90.5759 74.5556H90.4575C90.4164 74.5533 90.3765 74.5402 90.3419 74.5177C90.3073 74.4951 90.2792 74.4639 90.2604 74.4271L86.5336 66.5167Z" fill="#8DB258"></path><path d="M95.8311 66.398C95.8336 66.3394 95.8586 66.2841 95.9009 66.2436C95.9431 66.203 95.9993 66.1804 96.0578 66.1805H100.889C100.946 66.1805 101.001 66.2034 101.042 66.2442C101.083 66.285 101.106 66.3403 101.106 66.398V67.6736C101.107 67.703 101.102 67.7323 101.092 67.7599C101.082 67.7874 101.066 67.8126 101.046 67.8338C101.025 67.8551 101.001 67.872 100.974 67.8835C100.947 67.8951 100.918 67.901 100.889 67.901H97.655V69.3644H100.317C100.374 69.3644 100.43 69.3873 100.47 69.4281C100.511 69.4689 100.534 69.5243 100.534 69.582V70.8575C100.535 70.8869 100.531 70.9162 100.52 70.9438C100.51 70.9713 100.494 70.9965 100.474 71.0178C100.454 71.039 100.429 71.0559 100.402 71.0675C100.375 71.079 100.346 71.085 100.317 71.0849H97.655V72.667H100.889C100.946 72.667 101.001 72.69 101.042 72.7307C101.083 72.7715 101.106 72.8269 101.106 72.8846V74.1601C101.107 74.1895 101.102 74.2188 101.092 74.2464C101.082 74.2739 101.066 74.2991 101.046 74.3203C101.025 74.3416 101.001 74.3585 100.974 74.3701C100.947 74.3816 100.918 74.3876 100.889 74.3875H96.0578C95.9977 74.3875 95.94 74.3636 95.8975 74.3209C95.8549 74.2783 95.8311 74.2204 95.8311 74.1601V66.398Z" fill="#8DB258"></path><path d="M103.067 66.398C103.067 66.3403 103.09 66.285 103.131 66.2442C103.172 66.2034 103.227 66.1805 103.284 66.1805H106.775C107.446 66.1805 108.09 66.4465 108.566 66.9207C109.043 67.3948 109.313 68.0386 109.318 68.7118C109.303 69.2333 109.129 69.7378 108.821 70.1581C108.513 70.5784 108.085 70.8948 107.593 71.0652L109.19 74.0316C109.211 74.0663 109.223 74.1061 109.223 74.1468C109.224 74.1876 109.214 74.2277 109.193 74.2631C109.173 74.2984 109.144 74.3277 109.109 74.3479C109.073 74.368 109.033 74.3783 108.993 74.3776H107.406C107.367 74.3798 107.329 74.3707 107.296 74.3513C107.262 74.332 107.235 74.3033 107.218 74.2689L105.66 71.164H104.862V74.1304C104.859 74.19 104.835 74.2464 104.793 74.2886C104.751 74.3307 104.694 74.3554 104.635 74.3578H103.245C103.216 74.3579 103.187 74.3519 103.16 74.3404C103.133 74.3289 103.108 74.3119 103.088 74.2907C103.068 74.2694 103.052 74.2443 103.042 74.2167C103.031 74.1892 103.027 74.1598 103.028 74.1304L103.067 66.398ZM106.627 69.6808C106.871 69.6562 107.097 69.5413 107.261 69.3585C107.425 69.1756 107.515 68.938 107.514 68.692C107.511 68.4568 107.417 68.2319 107.251 68.0656C107.085 67.8993 106.861 67.8047 106.627 67.8021H104.901V69.6314L106.627 69.6808Z" fill="#8DB258"></path></g><defs><clipPath id="clip0_580_263"><rect width="119" height="83" fill="white"></rect></clipPath></defs></svg>